<?xml version="1.0" encoding="UTF-8" standalone="no"?>
<svg width="78px" height="78px" viewBox="0 0 78 78" version="1.1" xmlns="http://www.w3.org/2000/svg" xmlns:xlink="http://www.w3.org/1999/xlink">
    <!-- Generator: Sketch 39.1 (31720) - http://www.bohemiancoding.com/sketch -->
    <title>Group 4</title>
    <desc>Created with Sketch.</desc>
    <defs></defs>
    <g id="Symbols" stroke="none" stroke-width="1" fill="none" fill-rule="evenodd">
        <g id="Advantages-#3" transform="translate(-219.000000, -239.000000)">
            <g id="Group-4" transform="translate(219.000000, 239.000000)">
                <g id="globe18" fill="#EBCB80">
                    <g id="Layer_1">
                        <g id="Group">
                            <path d="M33.6666667,58.5946667 C33.6666667,56.4506667 33.9706667,54.3813333 34.488,52.3973333 C34.2266667,49.2213333 34.048,45.7093333 33.9866667,41.88 L40.248,41.88 C42.512,39.4346667 45.2506667,37.4426667 48.3333333,36.0693333 C48.2693333,32.8346667 48.0773333,27.6026667 47.5253333,22.1413333 C50.0746667,21.5546667 52.5546667,20.7173333 54.9253333,19.6213333 C56.608,23.7973333 57.7173333,28.68 58.1733333,33.9386667 C58.2266667,33.9386667 58.2773333,33.9306667 58.3306667,33.9306667 C59.768,33.9306667 61.1653333,34.08 62.5333333,34.3173333 C62.0826667,28.144 60.808,22.4346667 58.792,17.5786667 C59.936,16.8826667 61.0346667,16.1093333 62.104,15.2906667 C67.6373333,20.6826667 71.288,27.9813333 71.992,36.12 L68.4293333,36.12 C72.0506667,37.7546667 75.208,40.232 77.648,43.3093333 C77.8053333,41.8933333 77.9013333,40.4586667 77.9013333,39.0026667 C77.9013333,17.552 60.4533333,0.101333333 39.0026667,0.101333333 C17.552,0.101333333 0.101333333,17.552 0.101333333,39 C0.101333333,60.448 17.5493333,77.8986667 39,77.8986667 C40.272,77.8986667 41.528,77.8266667 42.7706667,77.7066667 C37.2213333,73.1813333 33.6666667,66.2986667 33.6666667,58.5946667 L33.6666667,58.5946667 Z M58.7146667,12.4293333 C58.1173333,12.8586667 57.5173333,13.28 56.8933333,13.6693333 C56.112,12.2373333 55.2746667,10.8906667 54.3653333,9.66666667 C55.8906667,10.4693333 57.3386667,11.4026667 58.7146667,12.4293333 L58.7146667,12.4293333 Z M53.08,15.7146667 C51.128,16.6133333 49.1013333,17.344 47.0133333,17.856 C46.4293333,13.6533333 45.592,9.6 44.4,6.49866667 C47.7573333,8.192 50.736,11.416 53.08,15.7146667 L53.08,15.7146667 Z M38.56,5.88533333 C38.7066667,5.88266667 38.8506667,5.864 39,5.864 C39.1493333,5.864 39.2933333,5.88266667 39.44,5.88533333 C40.504,7.624 41.792,11.9786667 42.736,18.5973333 C41.5013333,18.736 40.256,18.8293333 39.0026667,18.8293333 C37.7493333,18.8293333 36.504,18.7333333 35.2693333,18.5973333 C36.208,11.9786667 37.4986667,7.624 38.56,5.88533333 L38.56,5.88533333 Z M34.7333333,22.8853333 C36.1466667,23.0426667 37.5653333,23.152 39,23.152 C40.4346667,23.152 41.8533333,23.0426667 43.2666667,22.8853333 C43.664,26.7306667 43.936,31.168 44.016,36.12 L33.9866667,36.12 C34.064,31.1653333 34.336,26.728 34.7333333,22.8853333 L34.7333333,22.8853333 Z M23.6346667,9.66666667 C22.7253333,10.8906667 21.888,12.2373333 21.1066667,13.6693333 C20.4853333,13.28 19.8826667,12.8586667 19.2853333,12.4293333 C20.6613333,11.4026667 22.1093333,10.4693333 23.6346667,9.66666667 L23.6346667,9.66666667 Z M29.6666667,36.1173333 L19.6373333,36.1173333 C19.9466667,30.072 21.2133333,24.4346667 23.1653333,19.6586667 C25.512,20.7333333 27.96,21.56 30.4773333,22.1413333 C29.92,27.6293333 29.7306667,32.888 29.6666667,36.1173333 L29.6666667,36.1173333 Z M30.4773333,55.8586667 C27.9626667,56.44 25.5146667,57.264 23.1653333,58.3413333 C21.2133333,53.5653333 19.9466667,47.928 19.6373333,41.8826667 L29.6666667,41.8826667 C29.7306667,45.112 29.92,50.3706667 30.4773333,55.8586667 L30.4773333,55.8586667 Z M15.8986667,62.712 C10.3653333,57.32 6.71466667,50.0186667 6.01066667,41.8826667 L15.3173333,41.8826667 C15.624,48.7626667 16.9973333,55.0906667 19.2106667,60.424 C18.0666667,61.1173333 16.9706667,61.8906667 15.8986667,62.712 L15.8986667,62.712 Z M15.3146667,36.1173333 L6.008,36.1173333 C6.71466667,27.9813333 10.3653333,20.68 15.896,15.288 C16.968,16.1066667 18.064,16.88 19.208,17.576 C16.9946667,22.9093333 15.6213333,29.24 15.3146667,36.1173333 L15.3146667,36.1173333 Z M19.2853333,65.5706667 C19.8826667,65.1386667 20.4853333,64.7173333 21.1066667,64.3306667 C21.888,65.7626667 22.7253333,67.1093333 23.6346667,68.3333333 C22.1093333,67.5306667 20.6613333,66.5973333 19.2853333,65.5706667 L19.2853333,65.5706667 Z M25.0186667,62.24 C26.944,61.36 28.936,60.648 30.9866667,60.144 C31.5653333,64.32 32.3946667,68.344 33.576,71.4373333 C30.296,69.7146667 27.36,66.488 25.0186667,62.24 L25.0186667,62.24 Z M30.9866667,17.856 C28.936,17.3546667 26.944,16.64 25.0186667,15.76 C27.3573333,11.512 30.296,8.28533333 33.576,6.56266667 C32.3946667,9.656 31.5653333,13.68 30.9866667,17.856 L30.9866667,17.856 Z" id="Shape"></path>
                            <path d="M58.3306667,39.2666667 C47.6586667,39.2666667 39,47.9226667 39,58.5946667 C39,69.2693333 47.6586667,77.9253333 58.3306667,77.9253333 C69.008,77.9253333 77.6586667,69.2693333 77.6586667,58.5946667 C77.6586667,47.9226667 69.0053333,39.2666667 58.3306667,39.2666667 L58.3306667,39.2666667 Z" id="Shape"></path>
                        </g>
                    </g>
                </g>
                <path d="M65.9001429,58.5483636 L61.0957619,63.5512727 L61.0957619,47 C61.0957619,45.7956364 60.1591905,44.8181818 59.0005238,44.8181818 C57.8418571,44.8181818 56.9052857,45.7956364 56.9052857,47 L56.9052857,63.5512727 L52.1009048,58.5483636 C51.2816667,57.6952727 49.9574762,57.6952727 49.1382381,58.5483636 C48.319,59.4014545 48.319,60.7803636 49.1382381,61.6334545 L59.0005238,71.9032727 L68.8628095,61.6334545 C69.6820476,60.7803636 69.6820476,59.4014545 68.8628095,58.5483636 C68.0435714,57.6952727 66.719381,57.6952727 65.9001429,58.5483636 Z" id="Shape" fill="#4B4B4B" transform="translate(59.000524, 58.360727) rotate(-90.000000) translate(-59.000524, -58.360727) "></path>
            </g>
        </g>
    </g>
</svg>