<?xml version="1.0" encoding="UTF-8" standalone="no"?>
<svg width="74px" height="76px" viewBox="0 0 74 76" version="1.1" xmlns="http://www.w3.org/2000/svg" xmlns:xlink="http://www.w3.org/1999/xlink">
    <!-- Generator: Sketch 39.1 (31720) - http://www.bohemiancoding.com/sketch -->
    <title>gift50</title>
    <desc>Created with Sketch.</desc>
    <defs></defs>
    <g id="Symbols" stroke="none" stroke-width="1" fill="none" fill-rule="evenodd">
        <g id="Advantages-#3" transform="translate(-849.000000, -247.000000)" fill="#EBCB80">
            <g id="gift50" transform="translate(849.000000, 247.000000)">
                <g id="Layer_9">
                    <path d="M73.768,15.857 L73.822,15.722 L38.65,1.396 L32.683,3.663 C33.305,4.338 33.894,5.057 34.453,5.797 L38.617,4.214 L47.074,7.659 C49.656,7.247 51.968,7.378 53.947,8.095 C56.256,8.932 58.036,10.46 59.286,12.634 L70.432,17.175 L61.284,20.783 C61.217,21.86 60.959,22.974 60.357,23.968 L71.228,19.68 L71.228,60.103 L38.445,73.032 L38.445,32.609 L53.695,26.594 C52.317,26.42 50.854,26.018 49.326,25.498 L37.135,30.307 L25.412,25.683 L31.195,23.048 C30.711,22.842 30.275,22.533 29.935,22.113 C29.421,21.48 29.166,20.698 29.206,19.891 C28.897,19.53 27.988,19.119 26.909,18.727 L17.658,22.623 L4.159,17.299 L13.469,13.763 C12.735,13.161 12.148,12.454 11.743,11.614 L0.537,15.87 L0.417,15.823 L0.417,15.915 L0.412,15.918 L0.417,15.933 L0.417,61.886 L35.823,75.853 L35.823,75.908 L38.445,75.908 L38.445,75.853 L73.851,61.886 L73.851,15.824 L73.768,15.857 L73.768,15.857 Z M15.17,64.887 L3.04,60.102 L3.04,19.679 L15.17,24.464 L15.17,64.887 L15.17,64.887 Z M35.823,73.032 L22.072,67.479 L22.118,27.205 L35.823,32.609 L35.823,73.032 L35.823,73.032 Z M22.92,16.183 C26.111,17.049 30.937,18.356 30.77,19.954 C30.657,21.034 31.442,22.001 32.522,22.114 L32.522,22.114 C33.084,22.173 33.612,21.984 34.009,21.642 C34.12,21.74 34.236,21.836 34.373,21.909 C35.337,22.411 36.525,22.041 37.028,21.081 C37.047,21.042 37.083,21.018 37.109,20.984 C37.589,21.26 38.181,21.34 38.748,21.139 C38.998,21.05 39.218,20.913 39.404,20.745 C41.425,21.115 44.267,22.214 46.267,22.986 C49.171,24.107 51.981,25.191 54.355,25.438 C56.061,25.617 57.541,25.36 58.668,24.375 C61.05,22.294 60.097,18.301 59.786,16.988 C58.857,13.091 56.825,10.55 53.744,9.434 C48.721,7.614 42.144,10.248 37.421,12.838 C34.954,7.967 30.805,1.668 25.387,0.346 C22.203,-0.431 19.106,0.56 16.174,3.293 C13.407,5.871 12.316,8.154 12.838,10.268 C13.685,13.679 18.17,14.895 22.92,16.183 L22.92,16.183 Z M52.407,13.133 C54.187,13.78 55.349,15.339 55.959,17.901 C56.653,20.813 56.085,21.409 56.08,21.415 C55.17,22.208 50.302,20.326 47.684,19.317 C44.849,18.221 41.822,17.053 39.225,16.781 C39.179,16.667 39.133,16.553 39.081,16.432 C43.367,14.063 48.857,11.854 52.407,13.133 L52.407,13.133 Z M18.857,6.171 C20.784,4.375 22.612,3.723 24.454,4.169 C28.267,5.098 31.76,10.389 34.018,14.87 C33.475,15.223 32.989,15.549 32.599,15.817 C30.482,14.167 27.094,13.24 23.948,12.385 C21.329,11.675 16.947,10.488 16.658,9.323 C16.65,9.287 16.465,8.402 18.857,6.171 L18.857,6.171 Z" id="Shape"></path>
                </g>
            </g>
        </g>
    </g>
</svg>