<?xml version="1.0" encoding="UTF-8" standalone="no"?>
<svg width="85px" height="85px" viewBox="0 0 85 85" version="1.1" xmlns="http://www.w3.org/2000/svg" xmlns:xlink="http://www.w3.org/1999/xlink">
    <!-- Generator: Sketch 39.1 (31720) - http://www.bohemiancoding.com/sketch -->
    <title>search7</title>
    <desc>Created with Sketch.</desc>
    <defs></defs>
    <g id="Symbols" stroke="none" stroke-width="1" fill="none" fill-rule="evenodd">
        <g id="Advantages-#3" transform="translate(-536.000000, -239.000000)" fill="#EBCB80">
            <g id="search7" transform="translate(536.000000, 239.000000)">
                <g id="Capa_1">
                    <path d="M50.7894737,0 C31.8947368,0 16.5789474,15.3157895 16.5789474,34.2105263 C16.5789474,42.3421053 19.4315789,49.8 24.1684211,55.6842105 L1.55789474,78.2894737 C0.136842105,79.7157895 0.136842105,82.0210526 1.55789474,83.4421053 C2.97894737,84.8631579 5.28947368,84.8684211 6.71052632,83.4421053 L29.3210526,60.8315789 C35.1947368,65.5684211 42.6578947,68.4210526 50.7894737,68.4210526 C69.6842105,68.4210526 85,53.1052632 85,34.2105263 C85,15.3157895 69.6789474,0 50.7894737,0 L50.7894737,0 Z M50.7894737,63.1578947 C34.8263158,63.1578947 21.8421053,50.1736842 21.8421053,34.2105263 C21.8421053,18.2473684 34.8263158,5.26315789 50.7894737,5.26315789 C66.7526316,5.26315789 79.7368421,18.2473684 79.7368421,34.2105263 C79.7368421,50.1736842 66.7526316,63.1578947 50.7894737,63.1578947 L50.7894737,63.1578947 Z" id="Shape"></path>
                </g>
            </g>
        </g>
    </g>
</svg>