<?xml version="1.0" encoding="UTF-8" standalone="no"?>
<svg width="98px" height="129px" viewBox="0 0 98 129" version="1.1" xmlns="http://www.w3.org/2000/svg" xmlns:xlink="http://www.w3.org/1999/xlink">
    <!-- Generator: Sketch 39.1 (31720) - http://www.bohemiancoding.com/sketch -->
    <title>security33</title>
    <desc>Created with Sketch.</desc>
    <defs></defs>
    <g id="Page-1" stroke="none" stroke-width="1" fill="none" fill-rule="evenodd">
        <g id="Credit-Card-4" transform="translate(-1113.000000, -1018.000000)" fill="#EA6A2B">
            <g id="security33" transform="translate(1113.000000, 1018.000000)">
                <g id="Layer_1">
                    <path d="M49,0.168181818 C17.8590909,0.168181818 0.986363636,12.9681818 0.986363636,12.9681818 L0.986363636,67.3818182 C0.990909091,93.9 49,128.195455 49,128.195455 C49,128.195455 97.0136364,93.9 97.0136364,67.3818182 L97.0136364,12.9681818 C97.0136364,12.9681818 80.1409091,0.168181818 49,0.168181818 L49,0.168181818 Z M65.0681818,62.9045455 L68.8590909,85.0181818 L49,74.5772727 L29.1409091,85.0181818 L32.9318182,62.9045455 L16.8636364,47.2454545 L39.0681818,44.0181818 L49,23.9 L58.9318182,44.0181818 L81.1363636,47.2454545 L65.0681818,62.9045455 L65.0681818,62.9045455 Z" id="Shape"></path>
                </g>
            </g>
        </g>
    </g>
</svg>